<svg width="225" height="39" viewBox="0 0 225 39" fill="none" xmlns="http://www.w3.org/2000/svg">
<path d="M195.029 1L194.359 1.14077C194.359 1.14077 191.801 1.68308 188.779 2.95195C185.756 4.22081 182.188 6.19385 180.12 9.35913L180.102 9.38493L180.086 9.41074C179.138 11.0387 179 12.6032 179 13.8026C179 16.0936 180.054 18.0315 181.417 19.3699C181.997 19.9397 182.636 20.3917 183.297 20.7517C182.188 21.5993 180.998 22.3088 179.739 22.8233L180.611 25.0521C186.929 22.4694 191.512 16.1645 193.062 9.79785L190.78 9.21836C189.926 12.7246 187.963 16.2745 185.292 18.9922C184.594 18.7814 183.749 18.3282 183.047 17.6385C182.059 16.6685 181.351 15.3398 181.351 13.8026C181.351 12.7716 181.438 11.8144 182.099 10.6659C183.71 8.22351 186.872 6.34891 189.671 5.1737C192.102 4.15336 193.618 3.84143 194.138 3.72147C196.675 6.98249 197.768 10.9905 197.802 13.5962C197.837 16.2967 197.154 18.2509 196.138 19.5318C195.125 20.8079 193.776 21.4627 192.212 21.5306C191.513 21.5216 190.716 21.554 189.557 20.6438L188.124 22.5489C189.843 23.8985 191.587 23.9275 192.226 23.9377H192.258H192.291C194.481 23.8489 196.534 22.8452 197.963 21.045C199.391 19.2448 200.193 16.6994 200.152 13.5657C200.108 10.1793 198.815 5.39409 195.481 1.52318L195.029 1Z" fill="#185A37"/>
<path d="M6.175 25V10.05H0.125V7.375H15.425V10.05H9.375V25H6.175ZM17.1523 25V7.375H20.2773V14.55C20.694 13.8833 21.2523 13.3833 21.9523 13.05C22.6523 12.7 23.4273 12.525 24.2773 12.525C27.1607 12.525 28.6023 14.2 28.6023 17.55V25H25.4773V17.7C25.4773 16.75 25.294 16.0583 24.9273 15.625C24.5773 15.1917 24.0273 14.975 23.2773 14.975C22.3607 14.975 21.6273 15.2667 21.0773 15.85C20.544 16.4167 20.2773 17.175 20.2773 18.125V25H17.1523ZM37.8014 25.25C36.418 25.25 35.2264 24.9917 34.2264 24.475C33.2264 23.9583 32.4514 23.225 31.9014 22.275C31.368 21.325 31.1014 20.2 31.1014 18.9C31.1014 17.6333 31.3597 16.525 31.8764 15.575C32.4097 14.625 33.1347 13.8833 34.0514 13.35C34.9847 12.8 36.043 12.525 37.2264 12.525C38.9597 12.525 40.3264 13.075 41.3264 14.175C42.343 15.275 42.8514 16.775 42.8514 18.675V19.6H34.1014C34.3347 21.7833 35.5847 22.875 37.8514 22.875C38.5347 22.875 39.218 22.775 39.9014 22.575C40.5847 22.3583 41.2097 22.025 41.7764 21.575L42.6514 23.675C42.068 24.1583 41.3347 24.5417 40.4514 24.825C39.568 25.1083 38.6847 25.25 37.8014 25.25ZM37.3514 14.65C36.4347 14.65 35.693 14.9333 35.1264 15.5C34.5597 16.0667 34.218 16.8333 34.1014 17.8H40.2514C40.1847 16.7833 39.9014 16.0083 39.4014 15.475C38.918 14.925 38.2347 14.65 37.3514 14.65ZM54.1012 25.25C52.1512 25.25 50.5012 24.8833 49.1512 24.15C47.8178 23.4167 46.8012 22.375 46.1012 21.025C45.4012 19.675 45.0512 18.075 45.0512 16.225C45.0512 14.3583 45.4095 12.75 46.1262 11.4C46.8428 10.0333 47.8762 8.98333 49.2262 8.25C50.5762 7.5 52.1928 7.125 54.0762 7.125C55.3095 7.125 56.4678 7.30833 57.5512 7.675C58.6345 8.025 59.5345 8.51667 60.2512 9.15L59.1762 11.65C58.3928 11.0333 57.5928 10.5917 56.7762 10.325C55.9595 10.0583 55.0595 9.925 54.0762 9.925C52.2095 9.925 50.7928 10.4667 49.8262 11.55C48.8762 12.6333 48.4012 14.1917 48.4012 16.225C48.4012 18.275 48.8928 19.8333 49.8762 20.9C50.8595 21.9667 52.3178 22.5 54.2512 22.5C54.8012 22.5 55.3595 22.4583 55.9262 22.375C56.5095 22.275 57.0845 22.1333 57.6512 21.95V17.85H53.6012V15.475H60.3262V23.95C59.5095 24.35 58.5428 24.6667 57.4262 24.9C56.3095 25.1333 55.2012 25.25 54.1012 25.25ZM63.5344 10.15V7.1H67.0344V10.15H63.5344ZM63.7344 25V12.775H66.8594V25H63.7344ZM73.7064 25L68.4064 12.775H71.7314L75.1314 21.325L78.6564 12.775H81.7814L76.4064 25H73.7064ZM83.09 10.15V7.1H86.59V10.15H83.09ZM83.29 25V12.775H86.415V25H83.29ZM89.6621 25V12.775H92.7121V14.675C93.1288 13.975 93.6871 13.4417 94.3871 13.075C95.1038 12.7083 95.9038 12.525 96.7871 12.525C99.6704 12.525 101.112 14.2 101.112 17.55V25H97.9871V17.7C97.9871 16.75 97.8038 16.0583 97.4371 15.625C97.0871 15.1917 96.5371 14.975 95.7871 14.975C94.8704 14.975 94.1371 15.2667 93.5871 15.85C93.0538 16.4167 92.7871 17.175 92.7871 18.125V25H89.6621ZM109.986 29.75C108.853 29.75 107.786 29.6167 106.786 29.35C105.803 29.1 104.936 28.7083 104.186 28.175L105.086 26C105.786 26.4667 106.536 26.8083 107.336 27.025C108.136 27.2583 108.936 27.375 109.736 27.375C111.969 27.375 113.086 26.3 113.086 24.15V22.475C112.736 23.1583 112.194 23.7 111.461 24.1C110.744 24.5 109.944 24.7 109.061 24.7C107.961 24.7 107.003 24.45 106.186 23.95C105.369 23.4333 104.736 22.7167 104.286 21.8C103.836 20.8833 103.611 19.8167 103.611 18.6C103.611 17.3833 103.836 16.325 104.286 15.425C104.736 14.5083 105.369 13.8 106.186 13.3C107.003 12.7833 107.961 12.525 109.061 12.525C109.978 12.525 110.794 12.7333 111.511 13.15C112.228 13.55 112.753 14.0917 113.086 14.775V12.775H116.136V23.775C116.136 25.7583 115.611 27.25 114.561 28.25C113.511 29.25 111.986 29.75 109.986 29.75ZM109.911 22.325C110.878 22.325 111.644 21.9917 112.211 21.325C112.778 20.6583 113.061 19.75 113.061 18.6C113.061 17.45 112.778 16.55 112.211 15.9C111.644 15.2333 110.878 14.9 109.911 14.9C108.944 14.9 108.178 15.2333 107.611 15.9C107.044 16.55 106.761 17.45 106.761 18.6C106.761 19.75 107.044 20.6583 107.611 21.325C108.178 21.9917 108.944 22.325 109.911 22.325ZM123.924 25V10.05H117.874V7.375H133.174V10.05H127.124V25H123.924ZM132.948 25V12.775H135.998V14.925C136.598 13.475 137.882 12.675 139.848 12.525L140.798 12.45L140.998 15.1L139.198 15.275C137.148 15.475 136.123 16.525 136.123 18.425V25H132.948ZM148.568 25.25C147.185 25.25 145.993 24.9917 144.993 24.475C143.993 23.9583 143.218 23.225 142.668 22.275C142.135 21.325 141.868 20.2 141.868 18.9C141.868 17.6333 142.126 16.525 142.643 15.575C143.176 14.625 143.901 13.8833 144.818 13.35C145.751 12.8 146.81 12.525 147.993 12.525C149.726 12.525 151.093 13.075 152.093 14.175C153.11 15.275 153.618 16.775 153.618 18.675V19.6H144.868C145.101 21.7833 146.351 22.875 148.618 22.875C149.301 22.875 149.985 22.775 150.668 22.575C151.351 22.3583 151.976 22.025 152.543 21.575L153.418 23.675C152.835 24.1583 152.101 24.5417 151.218 24.825C150.335 25.1083 149.451 25.25 148.568 25.25ZM148.118 14.65C147.201 14.65 146.46 14.9333 145.893 15.5C145.326 16.0667 144.985 16.8333 144.868 17.8H151.018C150.951 16.7833 150.668 16.0083 150.168 15.475C149.685 14.925 149.001 14.65 148.118 14.65ZM162.118 25.25C160.734 25.25 159.543 24.9917 158.543 24.475C157.543 23.9583 156.768 23.225 156.218 22.275C155.684 21.325 155.418 20.2 155.418 18.9C155.418 17.6333 155.676 16.525 156.193 15.575C156.726 14.625 157.451 13.8833 158.368 13.35C159.301 12.8 160.359 12.525 161.543 12.525C163.276 12.525 164.643 13.075 165.643 14.175C166.659 15.275 167.168 16.775 167.168 18.675V19.6H158.418C158.651 21.7833 159.901 22.875 162.168 22.875C162.851 22.875 163.534 22.775 164.218 22.575C164.901 22.3583 165.526 22.025 166.093 21.575L166.968 23.675C166.384 24.1583 165.651 24.5417 164.768 24.825C163.884 25.1083 163.001 25.25 162.118 25.25ZM161.668 14.65C160.751 14.65 160.009 14.9333 159.443 15.5C158.876 16.0667 158.534 16.8333 158.418 17.8H164.568C164.501 16.7833 164.218 16.0083 163.718 15.475C163.234 14.925 162.551 14.65 161.668 14.65Z" fill="#185A37"/>
</svg>
